<svg viewBox="0 0 35.999 36.005" xml:space="preserve" xmlns="http://www.w3.org/2000/svg" xmlns:xlink="http://www.w3.org/1999/xlink" enable-background="new 0 0 35.999 36.005"><path d="M0 0v36.005h35.999V0H0z" fill="none"></path><defs><path id="a" d="M0 0h35.999v36.005H0z"></path></defs><clipPath id="b"><use xlink:href="#a" overflow="visible"></use></clipPath><g clip-path="url(#b)"><path d="M2.995 4.799v26.403c0 .995.805 1.8 1.799 1.8h26.405c.995 0 1.8-.805 1.8-1.8V4.799c0-.994-.805-1.799-1.8-1.799H4.794c-.994 0-1.799.805-1.799 1.799z" fill="#5d5e62" class="fill-990e0d"></path><linearGradient gradientTransform="translate(167.998 491.77)" gradientUnits="userSpaceOnUse" id="c" x1="-150.31" x2="-149.213" y1="-461.717" y2="-504.473"><stop offset="0" stop-color="#5d5e62" class="stop-color-df1413"></stop><stop offset="1" stop-color="#5d5e62" class="stop-color-990e0d"></stop></linearGradient><path d="M3.745 31.202V4.799c0-.579.469-1.049 1.049-1.049h26.405c.581 0 1.05.47 1.05 1.049v26.403c0 .581-.47 1.05-1.05 1.05H4.794c-.58 0-1.049-.468-1.049-1.05z" fill="url(#c)" class="fillurl(-c)"></path><path d="m9.961 8.892 16.073 16.072M26.034 8.892 9.961 24.964" fill="none" stroke="#5d5e62" stroke-width="4.287" stroke-linejoin="round" stroke-miterlimit="79.8403" class="stroke-990e0d"></path><path d="m9.961 9.964 16.073 16.073M26.034 9.964 9.961 26.037" fill="none" stroke="#ffffff" stroke-width="4.287" stroke-linejoin="round" stroke-miterlimit="79.8403" class="stroke-ffffff"></path></g></svg>